<?xml version="1.0" standalone="no"?><!DOCTYPE svg PUBLIC "-//W3C//DTD SVG 1.1//EN" "http://www.w3.org/Graphics/SVG/1.1/DTD/svg11.dtd"><svg t="1502971467554" class="icon" style="" viewBox="0 0 1024 1024" version="1.1" xmlns="http://www.w3.org/2000/svg" p-id="3280" xmlns:xlink="http://www.w3.org/1999/xlink" width="32" height="32"><defs><style type="text/css"></style></defs><path d="M688.64 356.48L587.52 256 283.52 557.44 384 657.92l304-301.44zM789.76 256a35.2 35.2 0 0 0 0-49.92l-50.56-49.92a35.84 35.84 0 0 0-50.56 0L612.48 231.04l101.12 100.48L789.76 256zM256 582.4l-32 133.76 135.04-33.28L256 582.4z m602.24 241.92H163.84c-19.84 0-35.84 0-35.84 18.56a35.84 35.84 0 0 0 35.84 35.84h696.32a35.84 35.84 0 0 0 35.84-35.84c0-19.84-16-18.56-35.84-18.56z" p-id="3281"></path></svg>